HIERARCHY
ROOT hip
{
  OFFSET 0 0 0
  CHANNELS 6 Xposition Yposition Zposition Zrotation Yrotation Xrotation
  JOINT abdomen
  {
    OFFSET 0 20.6881 -0.73152
    CHANNELS 3 Zrotation Xrotation Yrotation
    JOINT chest
    {
      OFFSET 0 11.7043 -0.48768
      CHANNELS 3 Zrotation Xrotation Yrotation
      JOINT neck
      {
        OFFSET 0 22.1894 -2.19456
        CHANNELS 3 Zrotation Xrotation Yrotation
        JOINT head
        {
          OFFSET -0.24384 7.07133 1.2192
          CHANNELS 3 Zrotation Xrotation Yrotation
          JOINT leftEye
          {
            OFFSET 4.14528 8.04674 8.04672
            CHANNELS 3 Zrotation Xrotation Yrotation
            End Site
            {
              OFFSET 1 0 0
            }
          }
          JOINT rightEye
          {
            OFFSET -3.6576 8.04674 8.04672
            CHANNELS 3 Zrotation Xrotation Yrotation
            End Site
            {
              OFFSET 1 0 0
            }
          }
        }
      }
      JOINT rCollar
      {
        OFFSET -2.68224 19.2634 -4.8768
        CHANNELS 3 Zrotation Xrotation Yrotation
        JOINT rShldr
        {
          OFFSET -8.77824 -1.95073 1.46304
          CHANNELS 3 Zrotation Xrotation Yrotation
          JOINT rForeArm
          {
            OFFSET -28.1742 -1.7115 0.48768
            CHANNELS 3 Zrotation Xrotation Yrotation
            JOINT rHand
            {
              OFFSET -22.5879 0.773209 7.07136
              CHANNELS 3 Zrotation Xrotation Yrotation
              JOINT rThumb1
              {
                OFFSET -1.2192 -0.487915 3.41376
                CHANNELS 3 Zrotation Xrotation Yrotation
                JOINT rThumb2
                {
                  OFFSET -3.37035 -0.52449 3.41376
                  CHANNELS 3 Zrotation Xrotation Yrotation
                  End Site
                  {
                    OFFSET -1.78271 -1.18214 1.43049
                  }
                }
              }
              JOINT rIndex1
              {
                OFFSET -7.75947 0.938293 5.60832
                CHANNELS 3 Zrotation Xrotation Yrotation
                JOINT rIndex2
                {
                  OFFSET -2.54057 -0.884171 1.56538
                  CHANNELS 3 Zrotation Xrotation Yrotation
                  End Site
                  {
                    OFFSET -1.62519 -0.234802 1.16502
                  }
                }
              }
              JOINT rMid1
              {
                OFFSET -8.24714 1.18213 3.41376
                CHANNELS 3 Zrotation Xrotation Yrotation
                JOINT rMid2
                {
                  OFFSET -3.10165 -0.590103 1.0647
                  CHANNELS 3 Zrotation Xrotation Yrotation
                  End Site
                  {
                    OFFSET -2.48547 -0.328903 0.83742
                  }
                }
              }
              JOINT rRing1
              {
                OFFSET -8.82822 0.546677 1.51678
                CHANNELS 3 Zrotation Xrotation Yrotation
                JOINT rRing2
                {
                  OFFSET -2.60934 -0.819778 -0.0198488
                  CHANNELS 3 Zrotation Xrotation Yrotation
                  End Site
                  {
                    OFFSET -2.33842 -0.294052 0.168128
                  }
                }
              }
              JOINT rPinky1
              {
                OFFSET -8.27202 -0.0477905 -0.4584
                CHANNELS 3 Zrotation Xrotation Yrotation
                JOINT rPinky2
                {
                  OFFSET -1.82734 -0.647385 -0.700984
                  CHANNELS 3 Zrotation Xrotation Yrotation
                  End Site
                  {
                    OFFSET -1.69225 -0.51767 -0.607171
                  }
                }
              }
            }
          }
        }
      }
      JOINT lCollar
      {
        OFFSET 2.68224 19.2634 -4.8768
        CHANNELS 3 Zrotation Xrotation Yrotation
        JOINT lShldr
        {
          OFFSET 8.77824 -1.95073 1.46304
          CHANNELS 3 Zrotation Xrotation Yrotation
          JOINT lForeArm
          {
            OFFSET 28.1742 -1.7115 0.48768
            CHANNELS 3 Zrotation Xrotation Yrotation
            JOINT lHand
            {
              OFFSET 22.5879 0.773209 7.07136
              CHANNELS 3 Zrotation Xrotation Yrotation
              JOINT lThumb1
              {
                OFFSET 1.2192 -0.487915 3.41376
                CHANNELS 3 Zrotation Xrotation Yrotation
                JOINT lThumb2
                {
                  OFFSET 3.37035 -0.52449 3.41376
                  CHANNELS 3 Zrotation Xrotation Yrotation
                  End Site
                  {
                    OFFSET 1.78271 -1.18214 1.43049
                  }
                }
              }
              JOINT lIndex1
              {
                OFFSET 7.75947 0.938293 5.60832
                CHANNELS 3 Zrotation Xrotation Yrotation
                JOINT lIndex2
                {
                  OFFSET 2.54057 -0.884171 1.56538
                  CHANNELS 3 Zrotation Xrotation Yrotation
                  End Site
                  {
                    OFFSET 1.62519 -0.234802 1.16502
                  }
                }
              }
              JOINT lMid1
              {
                OFFSET 8.24714 1.18213 3.41376
                CHANNELS 3 Zrotation Xrotation Yrotation
                JOINT lMid2
                {
                  OFFSET 3.10165 -0.590103 1.0647
                  CHANNELS 3 Zrotation Xrotation Yrotation
                  End Site
                  {
                    OFFSET 2.48547 -0.328903 0.83742
                  }
                }
              }
              JOINT lRing1
              {
                OFFSET 8.82822 0.546677 1.51678
                CHANNELS 3 Zrotation Xrotation Yrotation
                JOINT lRing2
                {
                  OFFSET 2.60934 -0.819778 -0.0198488
                  CHANNELS 3 Zrotation Xrotation Yrotation
                  End Site
                  {
                    OFFSET 2.33842 -0.294052 0.168128
                  }
                }
              }
              JOINT lPinky1
              {
                OFFSET 8.27202 -0.0477905 -0.4584
                CHANNELS 3 Zrotation Xrotation Yrotation
                JOINT lPinky2
                {
                  OFFSET 1.82734 -0.647385 -0.700984
                  CHANNELS 3 Zrotation Xrotation Yrotation
                  End Site
                  {
                    OFFSET 1.69225 -0.51767 -0.607171
                  }
                }
              }
            }
          }
        }
      }
    }
  }
  JOINT rButtock
  {
    OFFSET -8.77824 4.35084 1.2192
    CHANNELS 3 Zrotation Xrotation Yrotation
    JOINT rThigh
    {
      OFFSET 0 -1.70687 -2.19456
      CHANNELS 3 Zrotation Xrotation Yrotation
      JOINT rShin
      {
        OFFSET 0 -36.8199 0.73152
        CHANNELS 3 Zrotation Xrotation Yrotation
        JOINT rFoot
        {
          OFFSET 0.73152 -45.1104 -5.12064
          CHANNELS 3 Zrotation Xrotation Yrotation
          End Site
          {
            OFFSET -1.1221 -3.69964 12.103
          }
        }
      }
    }
  }
  JOINT lButtock
  {
    OFFSET 8.77824 4.35084 1.2192
    CHANNELS 3 Zrotation Xrotation Yrotation
    JOINT lThigh
    {
      OFFSET 0 -1.70687 -2.19456
      CHANNELS 3 Zrotation Xrotation Yrotation
      JOINT lShin
      {
        OFFSET 0 -36.8199 0.73152
        CHANNELS 3 Zrotation Xrotation Yrotation
        JOINT lFoot
        {
          OFFSET -0.73152 -45.1104 -5.12064
          CHANNELS 3 Zrotation Xrotation Yrotation
          End Site
          {
            OFFSET 1.1221 -3.69964 12.103
          }
        }
      }
    }
  }
}
MOTION
Frames:	4
Frame Time:	0.00833333
2.98135 85.1968 -15.4868 0.0 0.0 0.0 0.583975 -0.00303825 0.0166888 0.161172 -0.00468521 0.0279256 3.30284e-15 7.95139e-16 5.59082e-17 9.85227e-15 9.54166e-15 1.73937e-16 -0.0 0.0 0.0 -0.0 0.0 0.0 1.78776e-15 -5.43552e-18 2.48481e-16 3.41752e-14 -1.61513e-16 1.59028e-15 5.87508e-13 -1.76123e-13 3.49861e-14 6.711e-12 1.69464e-13 1.01778e-13 1.58316e-11 -1.26586e-14 3.08514e-13 2.73273e-11 -1.90833e-14 5.40694e-13 1.58332e-11 -1.39149e-14 2.98972e-13 7.73091 5.47488 0.417314 1.58296e-11 -1.28216e-14 3.08514e-13 2.90554 0.965183 0.102902 1.58296e-11 -1.2921e-14 3.10899e-13 10.2786 0.731801 0.0259123 1.58237e-11 -7.95139e-15 3.18055e-13 2.22167 -0.733487 -0.20892 1.49229e-15 -5.62964e-18 -1.49089e-16 3.30342e-14 -1.55301e-16 0.0 5.84328e-13 1.75129e-13 -1.27222e-14 6.71214e-12 -1.84174e-13 1.65389e-13 1.58343e-11 -1.94528e-14 3.11694e-13 2.73587e-11 -3.18055e-14 5.41489e-13 1.583e-11 -2.14687e-14 3.24417e-13 -7.73091 5.47488 -0.417314 1.58354e-11 -2.04748e-14 3.11694e-13 -2.90554 0.965183 -0.102902 1.58318e-11 -1.95803e-14 3.09309e-13 -10.2786 0.731801 -0.0259123 1.58413e-11 -1.43125e-14 2.95792e-13 -2.22167 -0.733487 0.20892 -2.03217e-16 0.0 -3.88251e-19 0.939889 -4.56523 -0.0787527 -0.00191228 2.71745 -0.00753571 -0.500934 1.84801 0.0947461 2.03217e-16 0.0 3.88251e-19 -0.0508605 -2.31867 0.0217204 0.00816088 -1.35178 0.0697909 0.492886 3.67058 -0.13082
-0.698404 83.5727 -17.0425 6.604 -67.1541 -8.8001 -0.237309 1.62935 1.8231 -0.141263 -0.25546 0.536814 -1.53975 2.96479 1.94829 4.15368 -0.712713 3.95105 -0.0 0.0 0.0 -0.0 0.0 0.0 1.71459e-14 6.63286e-14 1.77582e-14 16.8562 11.0696 11.3076 0.613615 16.5865 -40.6102 0.032921 -4.02685 -0.560901 3.72403e-10 5.09754e-10 -1.86268e-11 6.44468e-10 8.84864e-10 -2.86359e-11 3.72406e-10 5.09753e-10 -1.86355e-11 7.73091 5.47488 0.417314 3.72402e-10 5.09756e-10 -1.86239e-11 2.90554 0.965183 0.102902 3.72404e-10 5.09754e-10 -1.86252e-11 10.2786 0.731801 0.0259123 3.72396e-10 5.09759e-10 -1.86205e-11 2.22167 -0.733487 -0.20892 1.68917e-14 6.63298e-14 1.74344e-14 -12.8946 4.13218 -9.07908 -3.22412 14.0656 43.2639 -0.0500584 -5.01647 0.695591 2.48778e-10 1.31451e-10 -2.7573e-10 4.34216e-10 2.27328e-10 -4.74557e-10 2.48774e-10 1.31451e-10 -2.7572e-10 -7.73091 5.47488 -0.417314 2.48778e-10 1.3145e-10 -2.7573e-10 -2.90554 0.965183 -0.102902 2.48774e-10 1.31451e-10 -2.75732e-10 -10.2786 0.731801 -0.0259123 2.48786e-10 1.31454e-10 -2.75743e-10 -2.22167 -0.733487 0.20892 -2.03217e-16 0.0 -3.88251e-19 0.208908 -7.6996 3.08602 0.0361206 14.7374 0.201336 -1.03145 -4.24426 -3.40479 2.03217e-16 0.0 3.88251e-19 2.85645 -7.2343 0.298052 -0.00593912 11.1205 -0.106141 0.694158 0.988124 2.13104
-0.615231 83.2481 -16.9266 7.1923 -67.4884 -9.4381 -1.21701 3.33003 3.73118 -0.455913 -0.512977 1.07336 -3.38677 6.0909 4.02994 8.66013 -1.4208 8.133 -0.0 0.0 0.0 -0.0 0.0 0.0 3.48801e-14 1.41866e-13 3.53122e-14 29.7505 21.3211 24.6074 16.5323 7.37875 -82.3207 -0.018801 -8.27684 -1.16234 7.5936e-10 1.05811e-09 -4.36279e-11 1.31425e-09 1.83673e-09 -6.80324e-11 7.59364e-10 1.05811e-09 -4.36358e-11 7.73091 5.47488 0.417314 7.5936e-10 1.05811e-09 -4.36217e-11 2.90554 0.965183 0.102902 7.59365e-10 1.05811e-09 -4.36273e-11 10.2786 0.731801 0.0259123 7.59354e-10 1.05811e-09 -4.36253e-11 2.22167 -0.733487 -0.20892 3.46657e-14 1.41869e-13 3.507e-14 -25.0896 8.10431 -18.8369 -19.1028 2.70568 86.6621 0.0326081 -10.3991 1.46057 5.00079e-10 2.7371e-10 -5.75006e-10 8.73186e-10 4.73361e-10 -9.89623e-10 5.00074e-10 2.73711e-10 -5.75e-10 -7.73091 5.47488 -0.417314 5.00078e-10 2.73709e-10 -5.75006e-10 -2.90554 0.965183 -0.102902 5.00074e-10 2.73708e-10 -5.75008e-10 -10.2786 0.731801 -0.0259123 5.00088e-10 2.7371e-10 -5.75017e-10 -2.22167 -0.733487 0.20892 -2.03217e-16 0.0 -3.88251e-19 -0.179985 -10.9387 6.48539 -0.0299043 27.3908 0.459468 -2.40839 -10.5921 -7.21079 2.03217e-16 0.0 3.88251e-19 5.98994 -12.4371 0.591953 0.069122 24.2817 -0.315174 1.13037 -1.78065 4.50662
-0.533379 82.9231 -16.7945 7.8786 -67.8399 -10.1815 -2.18911 4.87455 5.45349 -0.732769 -0.756765 1.55471 -5.22918 8.85298 5.90768 12.7538 -2.09752 11.8603 -0.0 0.0 0.0 -0.0 0.0 0.0 4.78621e-14 1.98997e-13 5.27777e-14 36.9576 27.7518 38.3242 22.4225 -23.0729 -101.847 -0.142283 -12.0759 -1.71654 1.08555e-09 1.52929e-09 -5.64974e-11 1.87875e-09 2.65463e-09 -8.69892e-11 1.08555e-09 1.52929e-09 -5.65046e-11 7.73091 5.47488 0.417314 1.08555e-09 1.52929e-09 -5.64887e-11 2.90554 0.965183 0.102902 1.08555e-09 1.52929e-09 -5.64975e-11 10.2786 0.731801 0.0259123 1.08554e-09 1.52929e-09 -5.64975e-11 2.22167 -0.733487 -0.20892 4.76904e-14 1.99001e-13 5.26015e-14 -34.8579 11.1496 -27.7329 -22.5688 -28.7416 110.899 0.226176 -15.0404 2.15255 7.14665e-10 3.94393e-10 -8.27812e-10 1.24793e-09 6.82047e-10 -1.42475e-09 7.14661e-10 3.94395e-10 -8.27808e-10 -7.73091 5.47488 -0.417314 7.14664e-10 3.94392e-10 -8.27812e-10 -2.90554 0.965183 -0.102902 7.1466e-10 3.94391e-10 -8.27814e-10 -10.2786 0.731801 -0.0259123 7.14675e-10 3.94392e-10 -8.27821e-10 -2.22167 -0.733487 0.20892 -2.03217e-16 0.0 -3.88251e-19 -0.191828 -13.8125 9.61199 -0.214802 38.775 0.768588 -4.38599 -16.1748 -10.8084 2.03217e-16 0.0 3.88251e-19 8.8192 -17.0639 0.882484 0.236905 36.0639 -0.559143 1.73159 -4.34525 6.67252
